<svg
	width="133.8"
	height="32"
	viewBox="0 0 669 160"
	fill="none"
	xmlns="http://www.w3.org/2000/svg"
	class=""
	aria-label="TechGuys logo"
><rect width="160" height="160" rx="30" fill="#FD85D3" /><g clip-path="url(#logo-v2-clip)"><path
			fill-rule="evenodd"
			clip-rule="evenodd"
			d="M96.9867 115.085V93.013C96.9867 86.6791 93.7587 80.8882 88.2748 77.7081L62.113 62.5339V115.085C62.113 124.761 69.9198 132.604 79.552 132.604C89.1839 132.604 96.9867 124.761 96.9867 115.085Z"
			fill="black"
		/><path
			fill-rule="evenodd"
			clip-rule="evenodd"
			d="M114.42 27.5012H92.4482C86.143 27.5012 80.3784 30.7439 77.2126 36.2528L62.1069 62.5335H114.42C124.052 62.5335 131.86 54.6905 131.86 45.0147C131.86 35.3442 124.052 27.5012 114.42 27.5012Z"
			fill="black"
		/><path
			fill-rule="evenodd"
			clip-rule="evenodd"
			d="M44.6733 27.4962C54.3052 27.4962 62.1131 35.3392 62.1131 45.0149V62.5337H44.6733C35.0414 62.5337 27.2335 54.6907 27.2335 45.0149C27.2335 35.3392 35.0414 27.4962 44.6733 27.4962Z"
			fill="white"
		/></g><path
		d="M225.5 125.63C219.55 125.63 214.93 123.95 211.64 120.59C208.35 117.23 206.705 112.505 206.705 106.415V78.905H196.73V68.195H198.305C200.965 68.195 203.03 67.425 204.5 65.885C205.97 64.345 206.705 62.245 206.705 59.585V55.175H218.57V68.195H231.485V78.905H218.57V105.89C218.57 107.85 218.885 109.53 219.515 110.93C220.145 112.26 221.16 113.31 222.56 114.08C223.96 114.78 225.78 115.13 228.02 115.13C228.58 115.13 229.21 115.095 229.91 115.025C230.61 114.955 231.275 114.885 231.905 114.815V125C230.925 125.14 229.84 125.28 228.65 125.42C227.46 125.56 226.41 125.63 225.5 125.63ZM269.128 126.26C263.458 126.26 258.418 124.965 254.008 122.375C249.668 119.715 246.273 116.145 243.823 111.665C241.373 107.115 240.148 102.04 240.148 96.44C240.148 90.7 241.373 85.625 243.823 81.215C246.343 76.805 249.703 73.34 253.903 70.82C258.103 68.23 262.863 66.935 268.183 66.935C272.453 66.935 276.268 67.67 279.628 69.14C282.988 70.61 285.823 72.64 288.133 75.23C290.443 77.75 292.193 80.655 293.383 83.945C294.643 87.235 295.273 90.735 295.273 94.445C295.273 95.355 295.238 96.3 295.168 97.28C295.098 98.26 294.958 99.17 294.748 100.01H249.493V90.56H288.028L282.358 94.865C283.058 91.435 282.813 88.39 281.623 85.73C280.503 83 278.753 80.865 276.373 79.325C274.063 77.715 271.333 76.91 268.183 76.91C265.033 76.91 262.233 77.715 259.783 79.325C257.333 80.865 255.443 83.105 254.113 86.045C252.783 88.915 252.258 92.415 252.538 96.545C252.188 100.395 252.713 103.755 254.113 106.625C255.583 109.495 257.613 111.735 260.203 113.345C262.863 114.955 265.873 115.76 269.233 115.76C272.663 115.76 275.568 114.99 277.948 113.45C280.398 111.91 282.323 109.915 283.723 107.465L293.383 112.19C292.263 114.85 290.513 117.265 288.133 119.435C285.823 121.535 283.023 123.215 279.733 124.475C276.513 125.665 272.978 126.26 269.128 126.26ZM333.838 126.26C328.168 126.26 323.128 124.965 318.718 122.375C314.378 119.715 310.913 116.145 308.323 111.665C305.803 107.185 304.543 102.11 304.543 96.44C304.543 90.84 305.803 85.8 308.323 81.32C310.843 76.84 314.308 73.34 318.718 70.82C323.128 68.23 328.168 66.935 333.838 66.935C337.688 66.935 341.293 67.635 344.653 69.035C348.013 70.365 350.918 72.22 353.368 74.6C355.888 76.98 357.743 79.745 358.933 82.895L348.538 87.725C347.348 84.785 345.423 82.44 342.763 80.69C340.173 78.87 337.198 77.96 333.838 77.96C330.618 77.96 327.713 78.765 325.123 80.375C322.603 81.915 320.608 84.12 319.138 86.99C317.668 89.79 316.933 92.975 316.933 96.545C316.933 100.115 317.668 103.335 319.138 106.205C320.608 109.005 322.603 111.21 325.123 112.82C327.713 114.43 330.618 115.235 333.838 115.235C337.268 115.235 340.243 114.36 342.763 112.61C345.353 110.79 347.278 108.375 348.538 105.365L358.933 110.3C357.813 113.31 355.993 116.04 353.473 118.49C351.023 120.87 348.118 122.76 344.758 124.16C341.398 125.56 337.758 126.26 333.838 126.26ZM370.53 125V45.515H382.395V79.325L380.505 77.855C381.905 74.285 384.145 71.59 387.225 69.77C390.305 67.88 393.875 66.935 397.935 66.935C402.135 66.935 405.845 67.845 409.065 69.665C412.285 71.485 414.805 74.005 416.625 77.225C418.445 80.445 419.355 84.12 419.355 88.25V125H407.595V91.505C407.595 88.635 407.035 86.22 405.915 84.26C404.865 82.23 403.395 80.69 401.505 79.64C399.615 78.52 397.445 77.96 394.995 77.96C392.615 77.96 390.445 78.52 388.485 79.64C386.595 80.69 385.09 82.23 383.97 84.26C382.92 86.29 382.395 88.705 382.395 91.505V125H370.53ZM459.458 148.1C455.328 148.1 451.513 147.435 448.013 146.105C444.513 144.775 441.503 142.92 438.983 140.54C436.463 138.23 434.573 135.5 433.313 132.35L444.233 127.835C445.213 130.495 446.998 132.7 449.588 134.45C452.248 136.2 455.503 137.075 459.353 137.075C462.363 137.075 465.058 136.48 467.438 135.29C469.818 134.17 471.708 132.49 473.108 130.25C474.508 128.08 475.208 125.455 475.208 122.375V109.565L477.308 111.98C475.348 115.62 472.618 118.385 469.118 120.275C465.688 122.165 461.803 123.11 457.463 123.11C452.213 123.11 447.488 121.885 443.288 119.435C439.088 116.985 435.763 113.625 433.313 109.355C430.933 105.085 429.743 100.29 429.743 94.97C429.743 89.58 430.933 84.785 433.313 80.585C435.763 76.385 439.053 73.06 443.183 70.61C447.313 68.16 452.038 66.935 457.358 66.935C461.698 66.935 465.548 67.88 468.908 69.77C472.338 71.59 475.138 74.25 477.308 77.75L475.733 80.69V68.195H486.968V122.375C486.968 127.275 485.778 131.65 483.398 135.5C481.088 139.42 477.868 142.5 473.738 144.74C469.608 146.98 464.848 148.1 459.458 148.1ZM458.828 112.085C461.978 112.085 464.778 111.35 467.228 109.88C469.678 108.34 471.603 106.31 473.003 103.79C474.473 101.2 475.208 98.295 475.208 95.075C475.208 91.855 474.473 88.95 473.003 86.36C471.533 83.77 469.573 81.74 467.123 80.27C464.673 78.73 461.908 77.96 458.828 77.96C455.608 77.96 452.738 78.73 450.218 80.27C447.698 81.74 445.703 83.77 444.233 86.36C442.833 88.88 442.133 91.785 442.133 95.075C442.133 98.225 442.833 101.095 444.233 103.685C445.703 106.275 447.698 108.34 450.218 109.88C452.738 111.35 455.608 112.085 458.828 112.085ZM521.122 126.26C516.852 126.26 513.107 125.315 509.887 123.425C506.667 121.465 504.147 118.77 502.327 115.34C500.577 111.84 499.702 107.815 499.702 103.265V68.195H511.567V102.215C511.567 104.805 512.092 107.08 513.142 109.04C514.192 111 515.662 112.54 517.552 113.66C519.442 114.71 521.612 115.235 524.062 115.235C526.582 115.235 528.787 114.675 530.677 113.555C532.567 112.435 534.037 110.86 535.087 108.83C536.207 106.8 536.767 104.42 536.767 101.69V68.195H548.527V125H537.292V113.87L538.552 115.34C537.222 118.84 535.017 121.535 531.937 123.425C528.857 125.315 525.252 126.26 521.122 126.26ZM567.42 148.1C566.02 148.1 564.62 147.96 563.22 147.68C561.89 147.47 560.665 147.12 559.545 146.63V136.445C560.385 136.655 561.4 136.83 562.59 136.97C563.78 137.18 564.935 137.285 566.055 137.285C569.345 137.285 571.76 136.55 573.3 135.08C574.91 133.68 576.345 131.51 577.605 128.57L581.385 119.96L581.175 129.935L556.605 68.195H569.31L587.475 115.55H583.17L601.23 68.195H614.04L588.945 131.195C587.615 134.555 585.935 137.495 583.905 140.015C581.945 142.605 579.6 144.6 576.87 146C574.21 147.4 571.06 148.1 567.42 148.1ZM643.16 126.26C637.35 126.26 632.24 124.825 627.83 121.955C623.49 119.085 620.445 115.235 618.695 110.405L627.83 106.1C629.37 109.32 631.47 111.875 634.13 113.765C636.86 115.655 639.87 116.6 643.16 116.6C645.96 116.6 648.235 115.97 649.985 114.71C651.735 113.45 652.61 111.735 652.61 109.565C652.61 108.165 652.225 107.045 651.455 106.205C650.685 105.295 649.705 104.56 648.515 104C647.395 103.44 646.24 103.02 645.05 102.74L636.125 100.22C631.225 98.82 627.55 96.72 625.1 93.92C622.72 91.05 621.53 87.725 621.53 83.945C621.53 80.515 622.405 77.54 624.155 75.02C625.905 72.43 628.32 70.435 631.4 69.035C634.48 67.635 637.945 66.935 641.795 66.935C646.975 66.935 651.595 68.23 655.655 70.82C659.715 73.34 662.585 76.875 664.265 81.425L655.13 85.73C654.01 83 652.225 80.83 649.775 79.22C647.395 77.61 644.7 76.805 641.69 76.805C639.1 76.805 637.035 77.435 635.495 78.695C633.955 79.885 633.185 81.46 633.185 83.42C633.185 84.75 633.535 85.87 634.235 86.78C634.935 87.62 635.845 88.32 636.965 88.88C638.085 89.37 639.24 89.79 640.43 90.14L649.67 92.87C654.36 94.2 657.965 96.3 660.485 99.17C663.005 101.97 664.265 105.33 664.265 109.25C664.265 112.61 663.355 115.585 661.535 118.175C659.785 120.695 657.335 122.69 654.185 124.16C651.035 125.56 647.36 126.26 643.16 126.26Z"
		fill="white"
	/><defs><clipPath id="logo-v2-clip"><rect
				width="105"
				height="106"
				fill="white"
				transform="translate(27 27)"
			/></clipPath></defs></svg>
